{"asset":{"version":"2.0","generator":"babylon.js glTF exporter for 3dsmax 2021 v20201123.8"},"scene":0,"scenes":[{"nodes":[0,1,2,3,4,5,6,7,8,9,10,11,12]}],"nodes":[{"mesh":0,"name":"7"},{"mesh":1,"name":"4"},{"mesh":2,"name":"10"},{"mesh":3,"name":"6"},{"mesh":4,"name":"3"},{"mesh":5,"name":"2"},{"mesh":6,"name":"11"},{"mesh":7,"name":"8"},{"mesh":8,"name":"12"},{"mesh":9,"name":"5"},{"mesh":10,"name":"1"},{"mesh":11,"name":"9"},{"name":"Default light"}],"meshes":[{"primitives":[{"attributes":{"POSITION":1,"NORMAL":2,"TEXCOORD_0":3},"indices":0,"material":0}],"name":"7"},{"primitives":[{"attributes":{"POSITION":5,"NORMAL":6,"TEXCOORD_0":7},"indices":4,"material":1}],"name":"4"},{"primitives":[{"attributes":{"POSITION":9,"NORMAL":10,"TEXCOORD_0":11},"indices":8,"material":2}],"name":"10"},{"primitives":[{"attributes":{"POSITION":13,"NORMAL":14,"TEXCOORD_0":15},"indices":12,"material":3}],"name":"6"},{"primitives":[{"attributes":{"POSITION":17,"NORMAL":18,"TEXCOORD_0":19},"indices":16,"material":4}],"name":"3"},{"primitives":[{"attributes":{"POSITION":21,"NORMAL":22,"TEXCOORD_0":23},"indices":20,"material":5}],"name":"2"},{"primitives":[{"attributes":{"POSITION":25,"NORMAL":26,"TEXCOORD_0":27},"indices":24,"material":6}],"name":"11"},{"primitives":[{"attributes":{"POSITION":29,"NORMAL":30,"TEXCOORD_0":31},"indices":28,"material":7}],"name":"8"},{"primitives":[{"attributes":{"POSITION":33,"NORMAL":34,"TEXCOORD_0":35},"indices":32,"material":8}],"name":"12"},{"primitives":[{"attributes":{"POSITION":37,"NORMAL":38,"TEXCOORD_0":39},"indices":36,"material":9}],"name":"5"},{"primitives":[{"attributes":{"POSITION":41,"NORMAL":42,"TEXCOORD_0":43},"indices":40,"material":10}],"name":"1"},{"primitives":[{"attributes":{"POSITION":45,"NORMAL":46,"TEXCOORD_0":47},"indices":44,"material":11}],"name":"9"}],"accessors":[{"bufferView":0,"componentType":5123,"count":666,"type":"SCALAR","name":"accessorIndices"},{"bufferView":1,"componentType":5126,"count":666,"max":[-5.625714,0.716095448,20.92044],"min":[-6.153699,-0.03390459,20.3524551],"type":"VEC3","name":"accessorPositions"},{"bufferView":1,"byteOffset":7992,"componentType":5126,"count":666,"type":"VEC3","name":"accessorNormals"},{"bufferView":2,"componentType":5126,"count":666,"type":"VEC2","name":"accessorUVs"},{"bufferView":0,"byteOffset":1332,"componentType":5123,"count":666,"type":"SCALAR","name":"accessorIndices"},{"bufferView":1,"byteOffset":15984,"componentType":5126,"count":666,"max":[-4.04175758,0.716095448,20.92044],"min":[-4.609743,-0.03390459,20.3924561],"type":"VEC3","name":"accessorPositions"},{"bufferView":1,"byteOffset":23976,"componentType":5126,"count":666,"type":"VEC3","name":"accessorNormals"},{"bufferView":2,"byteOffset":5328,"componentType":5126,"count":666,"type":"VEC2","name":"accessorUVs"},{"bufferView":0,"byteOffset":2664,"componentType":5123,"count":666,"type":"SCALAR","name":"accessorIndices"},{"bufferView":1,"byteOffset":31968,"componentType":5126,"count":666,"max":[-5.625714,0.716095448,19.3764858],"min":[-6.153699,-0.03390459,18.8084984],"type":"VEC3","name":"accessorPositions"},{"bufferView":1,"byteOffset":39960,"componentType":5126,"count":666,"type":"VEC3","name":"accessorNormals"},{"bufferView":2,"byteOffset":10656,"componentType":5126,"count":666,"type":"VEC2","name":"accessorUVs"},{"bufferView":0,"byteOffset":3996,"componentType":5123,"count":882,"type":"SCALAR","name":"accessorIndices"},{"bufferView":1,"byteOffset":47952,"componentType":5126,"count":882,"max":[-5.09772825,0.716095448,20.92044],"min":[-5.665714,-0.03390459,20.3924561],"type":"VEC3","name":"accessorPositions"},{"bufferView":1,"byteOffset":58536,"componentType":5126,"count":882,"type":"VEC3","name":"accessorNormals"},{"bufferView":2,"byteOffset":15984,"componentType":5126,"count":882,"type":"VEC2","name":"accessorUVs"},{"bufferView":0,"byteOffset":5760,"componentType":5123,"count":882,"type":"SCALAR","name":"accessorIndices"},{"bufferView":1,"byteOffset":69120,"componentType":5126,"count":882,"max":[-4.04175758,0.716095448,20.432457],"min":[-4.56974268,-0.03390459,19.86447],"type":"VEC3","name":"accessorPositions"},{"bufferView":1,"byteOffset":79704,"componentType":5126,"count":882,"type":"VEC3","name":"accessorNormals"},{"bufferView":2,"byteOffset":23040,"componentType":5126,"count":882,"type":"VEC2","name":"accessorUVs"},{"bufferView":0,"byteOffset":7524,"componentType":5123,"count":882,"type":"SCALAR","name":"accessorIndices"},{"bufferView":1,"byteOffset":90288,"componentType":5126,"count":882,"max":[-4.04175758,0.716095448,19.90447],"min":[-4.56974268,-0.03390459,19.3364849],"type":"VEC3","name":"accessorPositions"},{"bufferView":1,"byteOffset":100872,"componentType":5126,"count":882,"type":"VEC3","name":"accessorNormals"},{"bufferView":2,"byteOffset":30096,"componentType":5126,"count":882,"type":"VEC2","name":"accessorUVs"},{"bufferView":0,"byteOffset":9288,"componentType":5123,"count":882,"type":"SCALAR","name":"accessorIndices"},{"bufferView":1,"byteOffset":111456,"componentType":5126,"count":882,"max":[-5.09772825,0.716095448,19.3364849],"min":[-5.665714,-0.03390459,18.8084984],"type":"VEC3","name":"accessorPositions"},{"bufferView":1,"byteOffset":122040,"componentType":5126,"count":882,"type":"VEC3","name":"accessorNormals"},{"bufferView":2,"byteOffset":37152,"componentType":5126,"count":882,"type":"VEC2","name":"accessorUVs"},{"bufferView":0,"byteOffset":11052,"componentType":5123,"count":672,"type":"SCALAR","name":"accessorIndices"},{"bufferView":1,"byteOffset":132624,"componentType":5126,"count":672,"max":[-5.625714,0.716095448,20.3924561],"min":[-6.153699,-0.03390459,19.86447],"type":"VEC3","name":"accessorPositions"},{"bufferView":1,"byteOffset":140688,"componentType":5126,"count":672,"type":"VEC3","name":"accessorNormals"},{"bufferView":2,"byteOffset":44208,"componentType":5126,"count":672,"type":"VEC2","name":"accessorUVs"},{"bufferView":0,"byteOffset":12396,"componentType":5123,"count":882,"type":"SCALAR","name":"accessorIndices"},{"bufferView":1,"byteOffset":148752,"componentType":5126,"count":882,"max":[-4.56974268,0.716095448,19.3364849],"min":[-5.137728,-0.03390459,18.8084984],"type":"VEC3","name":"accessorPositions"},{"bufferView":1,"byteOffset":159336,"componentType":5126,"count":882,"type":"VEC3","name":"accessorNormals"},{"bufferView":2,"byteOffset":49584,"componentType":5126,"count":882,"type":"VEC2","name":"accessorUVs"},{"bufferView":0,"byteOffset":14160,"componentType":5123,"count":882,"type":"SCALAR","name":"accessorIndices"},{"bufferView":1,"byteOffset":169920,"componentType":5126,"count":882,"max":[-4.56974268,0.716095448,20.92044],"min":[-5.137728,-0.03390459,20.3924561],"type":"VEC3","name":"accessorPositions"},{"bufferView":1,"byteOffset":180504,"componentType":5126,"count":882,"type":"VEC3","name":"accessorNormals"},{"bufferView":2,"byteOffset":56640,"componentType":5126,"count":882,"type":"VEC2","name":"accessorUVs"},{"bufferView":0,"byteOffset":15924,"componentType":5123,"count":942,"type":"SCALAR","name":"accessorIndices"},{"bufferView":1,"byteOffset":191088,"componentType":5126,"count":942,"max":[-4.04175758,0.716095448,19.3764858],"min":[-4.609743,-0.03390459,18.8084984],"type":"VEC3","name":"accessorPositions"},{"bufferView":1,"byteOffset":202392,"componentType":5126,"count":942,"type":"VEC3","name":"accessorNormals"},{"bufferView":2,"byteOffset":63696,"componentType":5126,"count":942,"type":"VEC2","name":"accessorUVs"},{"bufferView":0,"byteOffset":17808,"componentType":5123,"count":882,"type":"SCALAR","name":"accessorIndices"},{"bufferView":1,"byteOffset":213696,"componentType":5126,"count":882,"max":[-5.625714,0.716095448,19.90447],"min":[-6.153699,-0.03390459,19.3364849],"type":"VEC3","name":"accessorPositions"},{"bufferView":1,"byteOffset":224280,"componentType":5126,"count":882,"type":"VEC3","name":"accessorNormals"},{"bufferView":2,"byteOffset":71232,"componentType":5126,"count":882,"type":"VEC2","name":"accessorUVs"}],"bufferViews":[{"buffer":0,"byteLength":19572,"name":"bufferViewScalar"},{"buffer":0,"byteOffset":19572,"byteLength":234864,"byteStride":12,"name":"bufferViewFloatVec3"},{"buffer":0,"byteOffset":254436,"byteLength":78288,"byteStride":8,"name":"bufferViewFloatVec2"}],"buffers":[{"uri":"Model.bin","byteLength":332724}],"materials":[{"pbrMetallicRoughness":{"baseColorTexture":{"index":0},"metallicFactor":0.0,"roughnessFactor":0.0},"name":"Material #60"},{"pbrMetallicRoughness":{"baseColorTexture":{"index":0},"metallicFactor":0.0,"roughnessFactor":0.0},"name":"Material #56"},{"pbrMetallicRoughness":{"baseColorTexture":{"index":0},"metallicFactor":0.0,"roughnessFactor":0.0},"name":"Material #63"},{"pbrMetallicRoughness":{"baseColorTexture":{"index":0},"metallicFactor":0.0,"roughnessFactor":0.0},"name":"Material #59"},{"pbrMetallicRoughness":{"baseColorTexture":{"index":0},"metallicFactor":0.0,"roughnessFactor":0.0},"name":"Material #57"},{"pbrMetallicRoughness":{"baseColorTexture":{"index":0},"metallicFactor":0.0,"roughnessFactor":0.0},"name":"Material #58"},{"pbrMetallicRoughness":{"baseColorTexture":{"index":0},"metallicFactor":0.0,"roughnessFactor":0.0},"name":"Material #64"},{"pbrMetallicRoughness":{"baseColorTexture":{"index":0},"metallicFactor":0.0,"roughnessFactor":0.0},"name":"Material #62"},{"pbrMetallicRoughness":{"baseColorTexture":{"index":0},"metallicFactor":0.0,"roughnessFactor":0.0},"name":"Material #65"},{"pbrMetallicRoughness":{"baseColorTexture":{"index":0},"metallicFactor":0.0,"roughnessFactor":0.0},"name":"Material #55"},{"pbrMetallicRoughness":{"baseColorTexture":{"index":0},"metallicFactor":0.0,"roughnessFactor":0.0},"name":"Material #66"},{"pbrMetallicRoughness":{"baseColorTexture":{"index":0},"metallicFactor":0.0,"roughnessFactor":0.0},"name":"Material #61"}],"textures":[{"sampler":0,"source":0,"name":"Vivente_natura_r.jpg"}],"images":[{"uri":"MAPS/Vivente_natura_r.jpg"}],"samplers":[{"magFilter":9729,"minFilter":9987}]}